<svg width="25px" height="10px" viewBox="345 5 25 10" version="1.1" xmlns="http://www.w3.org/2000/svg" xmlns:xlink="http://www.w3.org/1999/xlink">
    <!-- Generator: Sketch 42 (36781) - http://www.bohemiancoding.com/sketch -->
    <desc>Created with Sketch.</desc>
    <defs></defs>
    <path d="M345.5,13.0084887 C345.5,13.8306373 346.170625,14.5 346.996725,14.5 L365.503275,14.5 C366.328986,14.5 367,13.8311887 367,13.0084887 L367,7.49151131 C367,6.66936272 366.329375,6 365.503275,6 L346.996725,6 C346.171014,6 345.5,6.66881131 345.5,7.49151131 L345.5,13.0084887 Z M346.996725,5.5 L365.503275,5.5 C366.606036,5.5 367.5,6.39373694 367.5,7.49151131 L367.5,13.0084887 C367.5,14.10837 366.604089,15 365.503275,15 L346.996725,15 C345.893964,15 345,14.1062631 345,13.0084887 L345,7.49151131 C345,6.39162998 345.895911,5.5 346.996725,5.5 Z M346,7.49594209 L346,13.0040579 C346,13.5533013 346.448895,14 347.002635,14 L365.497365,14 C366.052763,14 366.5,13.5541015 366.5,13.0040579 L366.5,7.49594209 C366.5,6.94669867 366.051105,6.5 365.497365,6.5 L347.002635,6.5 C346.447237,6.5 346,6.94589846 346,7.49594209 Z M368,8.5 L368.75,8.5 C369.164214,8.5 369.5,8.83559471 369.5,9.24225998 L369.5,11.25774 C369.5,11.6676789 369.167101,12 368.75,12 L368,12 L368,8.5 Z" id="Battery" stroke="none" fill="#000000" fill-rule="nonzero"></path>
</svg>